<svg xmlns="http://www.w3.org/2000/svg" xmlns:xlink="http://www.w3.org/1999/xlink" width="500" zoomAndPan="magnify" viewBox="0 0 375 374.999991" height="500" preserveAspectRatio="xMidYMid meet" version="1.0"><defs><g/><linearGradient x1="0" gradientTransform="matrix(0.75, 0, 0, 0.75, 0.0000045, 0)" y1="0" x2="499.999979" gradientUnits="userSpaceOnUse" y2="499.999979" id="2bc40d245b"><stop stop-opacity="1" stop-color="rgb(81.199646%, 40.39917%, 44.299316%)" offset="0"/><stop stop-opacity="1" stop-color="rgb(81.297302%, 40.496826%, 44.396973%)" offset="0.015625"/><stop stop-opacity="1" stop-color="rgb(81.494141%, 40.693665%, 44.593811%)" offset="0.03125"/><stop stop-opacity="1" stop-color="rgb(81.690979%, 40.890503%, 44.790649%)" offset="0.046875"/><stop stop-opacity="1" stop-color="rgb(81.887817%, 41.087341%, 44.987488%)" offset="0.0625"/><stop stop-opacity="1" stop-color="rgb(82.084656%, 41.28418%, 45.184326%)" offset="0.078125"/><stop stop-opacity="1" stop-color="rgb(82.281494%, 41.481018%, 45.381165%)" offset="0.09375"/><stop stop-opacity="1" stop-color="rgb(82.478333%, 41.677856%, 45.578003%)" offset="0.109375"/><stop stop-opacity="1" stop-color="rgb(82.675171%, 41.874695%, 45.774841%)" offset="0.125"/><stop stop-opacity="1" stop-color="rgb(82.872009%, 42.071533%, 45.97168%)" offset="0.140625"/><stop stop-opacity="1" stop-color="rgb(83.068848%, 42.268372%, 46.168518%)" offset="0.15625"/><stop stop-opacity="1" stop-color="rgb(83.265686%, 42.46521%, 46.365356%)" offset="0.171875"/><stop stop-opacity="1" stop-color="rgb(83.462524%, 42.662048%, 46.562195%)" offset="0.1875"/><stop stop-opacity="1" stop-color="rgb(83.659363%, 42.858887%, 46.759033%)" offset="0.203125"/><stop stop-opacity="1" stop-color="rgb(83.856201%, 43.055725%, 46.955872%)" offset="0.21875"/><stop stop-opacity="1" stop-color="rgb(84.05304%, 43.252563%, 47.15271%)" offset="0.234375"/><stop stop-opacity="1" stop-color="rgb(84.249878%, 43.449402%, 47.349548%)" offset="0.25"/><stop stop-opacity="1" stop-color="rgb(84.446716%, 43.64624%, 47.546387%)" offset="0.265625"/><stop stop-opacity="1" stop-color="rgb(84.643555%, 43.843079%, 47.743225%)" offset="0.28125"/><stop stop-opacity="1" stop-color="rgb(84.840393%, 44.039917%, 47.940063%)" offset="0.296875"/><stop stop-opacity="1" stop-color="rgb(85.037231%, 44.238281%, 48.136902%)" offset="0.3125"/><stop stop-opacity="1" stop-color="rgb(85.23407%, 44.43512%, 48.33374%)" offset="0.328125"/><stop stop-opacity="1" stop-color="rgb(85.430908%, 44.631958%, 48.530579%)" offset="0.34375"/><stop stop-opacity="1" stop-color="rgb(85.627747%, 44.828796%, 48.727417%)" offset="0.359375"/><stop stop-opacity="1" stop-color="rgb(85.824585%, 45.025635%, 48.925781%)" offset="0.375"/><stop stop-opacity="1" stop-color="rgb(86.021423%, 45.222473%, 49.12262%)" offset="0.390625"/><stop stop-opacity="1" stop-color="rgb(86.218262%, 45.419312%, 49.319458%)" offset="0.40625"/><stop stop-opacity="1" stop-color="rgb(86.4151%, 45.61615%, 49.516296%)" offset="0.421875"/><stop stop-opacity="1" stop-color="rgb(86.611938%, 45.812988%, 49.713135%)" offset="0.4375"/><stop stop-opacity="1" stop-color="rgb(86.808777%, 46.009827%, 49.909973%)" offset="0.453125"/><stop stop-opacity="1" stop-color="rgb(87.005615%, 46.206665%, 50.106812%)" offset="0.46875"/><stop stop-opacity="1" stop-color="rgb(87.202454%, 46.403503%, 50.30365%)" offset="0.484375"/><stop stop-opacity="1" stop-color="rgb(87.399292%, 46.600342%, 50.500488%)" offset="0.5"/><stop stop-opacity="1" stop-color="rgb(87.594604%, 46.821594%, 50.708008%)" offset="0.53125"/><stop stop-opacity="1" stop-color="rgb(87.788391%, 47.064209%, 50.926208%)" offset="0.5625"/><stop stop-opacity="1" stop-color="rgb(87.982178%, 47.30835%, 51.145935%)" offset="0.59375"/><stop stop-opacity="1" stop-color="rgb(88.175964%, 47.55249%, 51.364136%)" offset="0.625"/><stop stop-opacity="1" stop-color="rgb(88.369751%, 47.796631%, 51.583862%)" offset="0.65625"/><stop stop-opacity="1" stop-color="rgb(88.563538%, 48.039246%, 51.802063%)" offset="0.6875"/><stop stop-opacity="1" stop-color="rgb(88.757324%, 48.283386%, 52.020264%)" offset="0.71875"/><stop stop-opacity="1" stop-color="rgb(88.951111%, 48.527527%, 52.23999%)" offset="0.75"/><stop stop-opacity="1" stop-color="rgb(89.144897%, 48.771667%, 52.458191%)" offset="0.78125"/><stop stop-opacity="1" stop-color="rgb(89.338684%, 49.014282%, 52.676392%)" offset="0.8125"/><stop stop-opacity="1" stop-color="rgb(89.532471%, 49.258423%, 52.896118%)" offset="0.84375"/><stop stop-opacity="1" stop-color="rgb(89.726257%, 49.502563%, 53.114319%)" offset="0.875"/><stop stop-opacity="1" stop-color="rgb(89.920044%, 49.745178%, 53.33252%)" offset="0.90625"/><stop stop-opacity="1" stop-color="rgb(90.113831%, 49.989319%, 53.552246%)" offset="0.9375"/><stop stop-opacity="1" stop-color="rgb(90.307617%, 50.233459%, 53.770447%)" offset="0.96875"/><stop stop-opacity="1" stop-color="rgb(90.501404%, 50.4776%, 53.988647%)" offset="1"/></linearGradient><clipPath id="88c3fb2090"><path d="M 24 0 L 351 0 C 357.363281 0 363.46875 2.527344 367.96875 7.03125 C 372.472656 11.53125 375 17.636719 375 24 L 375 351 C 375 357.363281 372.472656 363.46875 367.96875 367.96875 C 363.46875 372.472656 357.363281 375 351 375 L 24 375 C 17.636719 375 11.53125 372.472656 7.03125 367.96875 C 2.527344 363.46875 0 357.363281 0 351 L 0 24 C 0 17.636719 2.527344 11.53125 7.03125 7.03125 C 11.53125 2.527344 17.636719 0 24 0 Z M 24 0 " clip-rule="nonzero"/></clipPath><linearGradient x1="0" gradientTransform="matrix(2.34375, 0, 0, 2.34375, 0, 0)" y1="0" x2="213.333337" gradientUnits="userSpaceOnUse" y2="213.333337" id="8df7922bea"><stop stop-opacity="1" stop-color="rgb(81.199646%, 40.39917%, 44.299316%)" offset="0"/><stop stop-opacity="1" stop-color="rgb(81.297302%, 40.496826%, 44.396973%)" offset="0.015625"/><stop stop-opacity="1" stop-color="rgb(81.494141%, 40.693665%, 44.593811%)" offset="0.03125"/><stop stop-opacity="1" stop-color="rgb(81.690979%, 40.890503%, 44.790649%)" offset="0.046875"/><stop stop-opacity="1" stop-color="rgb(81.887817%, 41.087341%, 44.987488%)" offset="0.0625"/><stop stop-opacity="1" stop-color="rgb(82.084656%, 41.28418%, 45.184326%)" offset="0.078125"/><stop stop-opacity="1" stop-color="rgb(82.281494%, 41.481018%, 45.381165%)" offset="0.09375"/><stop stop-opacity="1" stop-color="rgb(82.478333%, 41.677856%, 45.578003%)" offset="0.109375"/><stop stop-opacity="1" stop-color="rgb(82.675171%, 41.874695%, 45.774841%)" offset="0.125"/><stop stop-opacity="1" stop-color="rgb(82.872009%, 42.071533%, 45.97168%)" offset="0.140625"/><stop stop-opacity="1" stop-color="rgb(83.068848%, 42.268372%, 46.168518%)" offset="0.15625"/><stop stop-opacity="1" stop-color="rgb(83.265686%, 42.46521%, 46.365356%)" offset="0.171875"/><stop stop-opacity="1" stop-color="rgb(83.462524%, 42.662048%, 46.562195%)" offset="0.1875"/><stop stop-opacity="1" stop-color="rgb(83.659363%, 42.858887%, 46.759033%)" offset="0.203125"/><stop stop-opacity="1" stop-color="rgb(83.856201%, 43.055725%, 46.955872%)" offset="0.21875"/><stop stop-opacity="1" stop-color="rgb(84.05304%, 43.252563%, 47.15271%)" offset="0.234375"/><stop stop-opacity="1" stop-color="rgb(84.249878%, 43.449402%, 47.349548%)" offset="0.25"/><stop stop-opacity="1" stop-color="rgb(84.446716%, 43.64624%, 47.546387%)" offset="0.265625"/><stop stop-opacity="1" stop-color="rgb(84.643555%, 43.843079%, 47.743225%)" offset="0.28125"/><stop stop-opacity="1" stop-color="rgb(84.840393%, 44.041443%, 47.940063%)" offset="0.296875"/><stop stop-opacity="1" stop-color="rgb(85.037231%, 44.238281%, 48.136902%)" offset="0.3125"/><stop stop-opacity="1" stop-color="rgb(85.23407%, 44.43512%, 48.33374%)" offset="0.328125"/><stop stop-opacity="1" stop-color="rgb(85.430908%, 44.631958%, 48.530579%)" offset="0.34375"/><stop stop-opacity="1" stop-color="rgb(85.627747%, 44.828796%, 48.728943%)" offset="0.359375"/><stop stop-opacity="1" stop-color="rgb(85.824585%, 45.025635%, 48.925781%)" offset="0.375"/><stop stop-opacity="1" stop-color="rgb(86.021423%, 45.222473%, 49.12262%)" offset="0.390625"/><stop stop-opacity="1" stop-color="rgb(86.218262%, 45.419312%, 49.319458%)" offset="0.40625"/><stop stop-opacity="1" stop-color="rgb(86.4151%, 45.61615%, 49.516296%)" offset="0.421875"/><stop stop-opacity="1" stop-color="rgb(86.611938%, 45.812988%, 49.713135%)" offset="0.4375"/><stop stop-opacity="1" stop-color="rgb(86.808777%, 46.009827%, 49.909973%)" offset="0.453125"/><stop stop-opacity="1" stop-color="rgb(87.005615%, 46.206665%, 50.106812%)" offset="0.46875"/><stop stop-opacity="1" stop-color="rgb(87.202454%, 46.403503%, 50.30365%)" offset="0.484375"/><stop stop-opacity="1" stop-color="rgb(87.400818%, 46.600342%, 50.500488%)" offset="0.5"/><stop stop-opacity="1" stop-color="rgb(87.59613%, 46.821594%, 50.708008%)" offset="0.53125"/><stop stop-opacity="1" stop-color="rgb(87.788391%, 47.064209%, 50.926208%)" offset="0.5625"/><stop stop-opacity="1" stop-color="rgb(87.982178%, 47.30835%, 51.145935%)" offset="0.59375"/><stop stop-opacity="1" stop-color="rgb(88.175964%, 47.55249%, 51.364136%)" offset="0.625"/><stop stop-opacity="1" stop-color="rgb(88.369751%, 47.796631%, 51.583862%)" offset="0.65625"/><stop stop-opacity="1" stop-color="rgb(88.563538%, 48.039246%, 51.802063%)" offset="0.6875"/><stop stop-opacity="1" stop-color="rgb(88.757324%, 48.283386%, 52.020264%)" offset="0.71875"/><stop stop-opacity="1" stop-color="rgb(88.951111%, 48.527527%, 52.23999%)" offset="0.75"/><stop stop-opacity="1" stop-color="rgb(89.144897%, 48.771667%, 52.458191%)" offset="0.78125"/><stop stop-opacity="1" stop-color="rgb(89.338684%, 49.014282%, 52.676392%)" offset="0.8125"/><stop stop-opacity="1" stop-color="rgb(89.532471%, 49.258423%, 52.896118%)" offset="0.84375"/><stop stop-opacity="1" stop-color="rgb(89.726257%, 49.502563%, 53.114319%)" offset="0.875"/><stop stop-opacity="1" stop-color="rgb(89.920044%, 49.745178%, 53.33252%)" offset="0.90625"/><stop stop-opacity="1" stop-color="rgb(90.113831%, 49.989319%, 53.552246%)" offset="0.9375"/><stop stop-opacity="1" stop-color="rgb(90.307617%, 50.233459%, 53.770447%)" offset="0.96875"/><stop stop-opacity="1" stop-color="rgb(90.501404%, 50.4776%, 53.988647%)" offset="1"/></linearGradient><clipPath id="a219be6f89"><path d="M 261.582031 142.089844 L 350.085938 142.089844 L 350.085938 276.6875 L 261.582031 276.6875 Z M 261.582031 142.089844 " clip-rule="nonzero"/></clipPath></defs><rect x="-37.5" fill="url(#2bc40d245b)" width="450" y="-37.499999" height="449.999989"/><g clip-path="url(#88c3fb2090)"><rect x="-37.5" width="450" fill="#fdfffc" y="-37.499999" height="449.999989" fill-opacity="1"/><path stroke-linecap="butt" transform="matrix(0.75, 0, 0, 0.75, 0.0000045, 0)" fill="none" stroke-linejoin="miter" d="M 31.999998 0 L 468.000055 0 C 476.484431 0 484.625057 3.369792 490.625058 9.375001 C 496.630267 15.375002 500.000059 23.515628 500.000059 32.000004 L 500.000059 468.000061 C 500.000059 476.484437 496.630267 484.625063 490.625058 490.625064 C 484.625057 496.630273 476.484431 500.000065 468.000055 500.000065 L 31.999998 500.000065 C 23.515622 500.000065 15.374996 496.630273 9.374995 490.625064 C 3.369786 484.625063 -0.000006 476.484437 -0.000006 468.000061 L -0.000006 32.000004 C -0.000006 23.515628 3.369786 15.375002 9.374995 9.375001 C 15.374996 3.369792 23.515622 0 31.999998 0 Z M 31.999998 0 " stroke="url(#8df7922bea)" stroke-width="28" stroke-miterlimit="4"/></g><g fill="#e17b84" fill-opacity="1"><g transform="translate(24.610857, 229.801621)"><g><path d="M 82.53125 -86.46875 L 82.53125 0 L 61.46875 0 L 61.46875 -35.59375 L 28.703125 -35.59375 L 28.703125 0 L 7.640625 0 L 7.640625 -86.46875 L 28.703125 -86.46875 L 28.703125 -52.59375 L 61.46875 -52.59375 L 61.46875 -86.46875 Z M 82.53125 -86.46875 "/></g></g></g><g fill="#e17b84" fill-opacity="1"><g transform="translate(114.644671, 229.801621)"><g><path d="M 28.703125 -69.59375 L 28.703125 -52.109375 L 56.90625 -52.109375 L 56.90625 -35.84375 L 28.703125 -35.84375 L 28.703125 -16.875 L 60.59375 -16.875 L 60.59375 0 L 7.640625 0 L 7.640625 -86.46875 L 60.59375 -86.46875 L 60.59375 -69.59375 Z M 28.703125 -69.59375 "/></g></g></g><g fill="#e17b84" fill-opacity="1"><g transform="translate(181.277078, 229.801621)"><g><path d="M 51.734375 0 L 33.75 -32.640625 L 28.703125 -32.640625 L 28.703125 0 L 7.640625 0 L 7.640625 -86.46875 L 42.984375 -86.46875 C 49.796875 -86.46875 55.601562 -85.273438 60.40625 -82.890625 C 65.21875 -80.515625 68.8125 -77.25 71.1875 -73.09375 C 73.570312 -68.945312 74.765625 -64.332031 74.765625 -59.25 C 74.765625 -53.5 73.140625 -48.363281 69.890625 -43.84375 C 66.648438 -39.332031 61.867188 -36.128906 55.546875 -34.234375 L 75.5 0 Z M 28.703125 -47.546875 L 41.75 -47.546875 C 45.613281 -47.546875 48.507812 -48.488281 50.4375 -50.375 C 52.363281 -52.257812 53.328125 -54.929688 53.328125 -58.390625 C 53.328125 -61.671875 52.363281 -64.253906 50.4375 -66.140625 C 48.507812 -68.023438 45.613281 -68.96875 41.75 -68.96875 L 28.703125 -68.96875 Z M 28.703125 -47.546875 "/></g></g></g><g clip-path="url(#a219be6f89)"><path fill="#e17b84" d="M 274.449219 186.445312 C 274.449219 169.054688 288.59375 154.910156 305.980469 154.910156 C 323.367188 154.910156 337.511719 169.054688 337.511719 186.445312 C 337.511719 203.832031 323.367188 217.976562 305.980469 217.976562 C 288.59375 217.976562 274.449219 203.832031 274.449219 186.445312 Z M 350.332031 186.445312 C 350.332031 161.988281 330.433594 142.09375 305.980469 142.09375 C 281.527344 142.09375 261.632812 161.988281 261.632812 186.445312 C 261.632812 208.722656 278.144531 227.214844 299.570312 230.328125 L 299.570312 248.371094 L 284.648438 248.371094 L 284.648438 261.1875 L 299.570312 261.1875 L 299.570312 276.628906 L 312.390625 276.628906 L 312.390625 261.1875 L 327.3125 261.1875 L 327.3125 248.371094 L 312.390625 248.371094 L 312.390625 230.328125 C 333.816406 227.214844 350.332031 208.722656 350.332031 186.445312 " fill-opacity="1" fill-rule="nonzero"/></g></svg>