<svg xmlns="http://www.w3.org/2000/svg" xmlns:xlink="http://www.w3.org/1999/xlink" width="336" zoomAndPan="magnify" viewBox="0 0 252 143.999998" height="192" preserveAspectRatio="xMidYMid meet" version="1.0"><defs><filter x="0%" y="0%" width="100%" height="100%" id="75213a97f8"><feColorMatrix values="0 0 0 0 1 0 0 0 0 1 0 0 0 0 1 0 0 0 1 0" color-interpolation-filters="sRGB"/></filter><g/><mask id="a9209be802"><g filter="url(#75213a97f8)"><rect x="-25.2" width="302.4" fill="#000000" y="-14.4" height="172.799997" fill-opacity="0.22"/></g></mask><clipPath id="e0eaf67764"><path d="M 0.144531 0.261719 L 150 0.261719 L 150 142 L 0.144531 142 Z M 0.144531 0.261719 " clip-rule="nonzero"/></clipPath><clipPath id="ffdb1dae77"><path d="M 49.242188 18.625 L 39.046875 8.550781 C 48.632812 7.289062 64.019531 6.15625 74.996094 6.269531 C 88.515625 6.128906 108.769531 7.882812 116.570312 9.441406 C 130.703125 12.191406 143.664062 24.6875 146.726562 38.523438 L 146.726562 38.59375 C 148.773438 48.484375 149.789062 58.703125 149.808594 69.839844 C 149.824219 80.976562 148.78125 91.226562 146.726562 101.117188 L 146.726562 101.1875 C 145.917969 104.710938 144.589844 108.023438 142.734375 111.125 L 91.996094 60.933594 C 95.234375 58.886719 99.128906 57.949219 103.011719 57.933594 C 108.375 57.957031 113.773438 59.730469 117.410156 63.777344 C 124.339844 71.535156 131.308594 80.222656 137.558594 88.675781 C 138.335938 82.421875 138.722656 76.144531 138.714844 69.839844 C 138.699219 59.5 137.773438 50.019531 135.878906 40.90625 C 133.765625 31.457031 124.160156 22.246094 114.445312 20.363281 L 114.414062 20.363281 C 108.085938 19.097656 88.347656 17.253906 75.066406 17.402344 L 74.941406 17.402344 C 67.253906 17.296875 57.402344 17.878906 49.242188 18.625 Z M 148.171875 132.144531 C 148.429688 132.402344 148.664062 132.683594 148.867188 132.984375 C 149.070312 133.285156 149.242188 133.605469 149.382812 133.941406 C 149.527344 134.277344 149.632812 134.625 149.707031 134.984375 C 149.777344 135.339844 149.816406 135.703125 149.816406 136.066406 C 149.820312 136.429688 149.785156 136.792969 149.714844 137.148438 C 149.648438 137.507812 149.542969 137.855469 149.40625 138.195312 C 149.269531 138.53125 149.097656 138.851562 148.898438 139.15625 C 148.695312 139.460938 148.46875 139.742188 148.210938 140 C 147.953125 140.261719 147.675781 140.492188 147.371094 140.695312 C 147.070312 140.902344 146.75 141.074219 146.414062 141.214844 C 146.078125 141.355469 145.730469 141.460938 145.375 141.535156 C 145.015625 141.609375 144.65625 141.644531 144.289062 141.648438 C 143.925781 141.648438 143.566406 141.613281 143.207031 141.546875 C 142.847656 141.476562 142.5 141.371094 142.164062 141.234375 C 141.824219 141.097656 141.503906 140.925781 141.199219 140.726562 C 140.894531 140.523438 140.613281 140.296875 140.355469 140.039062 L 126.730469 126.554688 C 123.539062 128.308594 120.15625 129.542969 116.585938 130.261719 C 109.074219 131.757812 90.058594 133.4375 76.585938 133.4375 C 76.046875 133.4375 75.519531 133.4375 74.996094 133.4375 C 61.476562 133.585938 41.222656 131.824219 33.421875 130.265625 C 19.292969 127.511719 6.332031 115.023438 3.269531 101.179688 L 3.25 101.109375 C 1.199219 91.21875 0.195312 81 0.171875 69.863281 C 0.152344 58.726562 1.199219 48.464844 3.253906 38.585938 L 3.269531 38.515625 C 5.023438 30.574219 10.03125 23.097656 16.652344 17.640625 L 9.140625 10.214844 C 8.875 9.957031 8.632812 9.679688 8.421875 9.378906 C 8.210938 9.074219 8.03125 8.753906 7.882812 8.417969 C 7.734375 8.078125 7.625 7.730469 7.546875 7.367188 C 7.46875 7.007812 7.425781 6.644531 7.421875 6.273438 C 7.414062 5.90625 7.445312 5.539062 7.515625 5.175781 C 7.582031 4.8125 7.683594 4.460938 7.820312 4.117188 C 7.960938 3.777344 8.128906 3.453125 8.332031 3.144531 C 8.535156 2.835938 8.765625 2.550781 9.027344 2.289062 C 9.285156 2.023438 9.570312 1.789062 9.875 1.585938 C 10.183594 1.378906 10.503906 1.207031 10.847656 1.0625 C 11.1875 0.921875 11.539062 0.816406 11.902344 0.746094 C 12.261719 0.675781 12.628906 0.640625 12.996094 0.640625 C 13.367188 0.640625 13.730469 0.679688 14.09375 0.753906 C 14.453125 0.828125 14.804688 0.9375 15.144531 1.082031 C 15.484375 1.226562 15.804688 1.402344 16.109375 1.613281 C 16.414062 1.820312 16.695312 2.058594 16.953125 2.320312 Z M 77.097656 77.457031 L 54.226562 54.8125 C 54.035156 55.316406 53.816406 55.808594 53.566406 56.285156 C 53.316406 56.761719 53.039062 57.222656 52.730469 57.667969 C 52.425781 58.109375 52.089844 58.53125 51.730469 58.933594 C 51.371094 59.335938 50.988281 59.710938 50.582031 60.066406 C 50.175781 60.417969 49.746094 60.746094 49.300781 61.046875 C 48.851562 61.347656 48.386719 61.617188 47.90625 61.859375 C 47.421875 62.101562 46.929688 62.3125 46.421875 62.496094 C 45.914062 62.675781 45.394531 62.824219 44.867188 62.9375 C 44.34375 63.054688 43.8125 63.136719 43.273438 63.1875 C 42.738281 63.238281 42.199219 63.253906 41.660156 63.234375 C 41.121094 63.21875 40.585938 63.167969 40.054688 63.082031 C 39.519531 63 38.996094 62.882812 38.476562 62.730469 C 37.960938 62.582031 37.453125 62.398438 36.957031 62.1875 C 36.464844 61.972656 35.984375 61.730469 35.519531 61.457031 C 35.054688 61.183594 34.605469 60.882812 34.179688 60.554688 C 33.753906 60.226562 33.347656 59.875 32.964844 59.492188 C 32.582031 59.113281 32.222656 58.714844 31.890625 58.289062 C 31.554688 57.867188 31.25 57.421875 30.972656 56.960938 C 30.695312 56.5 30.445312 56.019531 30.226562 55.527344 C 30.011719 55.035156 29.824219 54.53125 29.667969 54.015625 C 29.511719 53.5 29.390625 52.972656 29.300781 52.441406 C 29.210938 51.910156 29.152344 51.375 29.128906 50.835938 C 29.105469 50.300781 29.117188 49.761719 29.160156 49.222656 C 29.203125 48.6875 29.28125 48.152344 29.390625 47.625 C 29.503906 47.097656 29.644531 46.578125 29.820312 46.070312 C 29.996094 45.558594 30.203125 45.0625 30.4375 44.578125 C 30.675781 44.09375 30.941406 43.625 31.238281 43.175781 C 31.53125 42.726562 31.855469 42.292969 32.203125 41.882812 C 32.554688 41.472656 32.925781 41.085938 33.324219 40.722656 C 33.722656 40.355469 34.140625 40.019531 34.578125 39.707031 C 35.019531 39.394531 35.476562 39.109375 35.953125 38.855469 C 36.425781 38.601562 36.917969 38.378906 37.417969 38.183594 L 24.621094 25.53125 C 19.464844 29.5 15.40625 35.144531 14.125 40.890625 C 12.234375 50.007812 11.304688 59.488281 11.28125 69.863281 C 11.257812 80.234375 12.222656 89.683594 14.117188 98.8125 C 14.367188 99.902344 14.699219 100.964844 15.113281 102 C 20.082031 95.121094 25.8125 87.90625 31.5 81.539062 C 34.171875 78.570312 38.136719 77.269531 42.070312 77.25 C 46.007812 77.234375 49.964844 78.570312 52.648438 81.539062 C 56.445312 85.78125 60.246094 90.40625 63.835938 95.054688 C 67.914062 89.300781 72.410156 83.3125 77.097656 77.457031 Z M 77.097656 77.457031 " clip-rule="nonzero"/></clipPath><linearGradient x1="-0.07" gradientTransform="matrix(0.292284, 0, 0, 0.292293, 0.173363, -3.646899)" y1="256" x2="512.01001" gradientUnits="userSpaceOnUse" y2="256" id="bd1403e572"><stop stop-opacity="1" stop-color="rgb(41.999817%, 49.798584%, 49.798584%)" offset="0"/><stop stop-opacity="1" stop-color="rgb(42.105103%, 49.92981%, 49.940491%)" offset="0.015625"/><stop stop-opacity="1" stop-color="rgb(42.3172%, 50.195312%, 50.22583%)" offset="0.03125"/><stop stop-opacity="1" stop-color="rgb(42.530823%, 50.460815%, 50.512695%)" offset="0.046875"/><stop stop-opacity="1" stop-color="rgb(42.744446%, 50.726318%, 50.799561%)" offset="0.0625"/><stop stop-opacity="1" stop-color="rgb(42.958069%, 50.991821%, 51.086426%)" offset="0.078125"/><stop stop-opacity="1" stop-color="rgb(43.171692%, 51.257324%, 51.371765%)" offset="0.09375"/><stop stop-opacity="1" stop-color="rgb(43.385315%, 51.524353%, 51.65863%)" offset="0.109375"/><stop stop-opacity="1" stop-color="rgb(43.598938%, 51.789856%, 51.945496%)" offset="0.125"/><stop stop-opacity="1" stop-color="rgb(43.812561%, 52.055359%, 52.232361%)" offset="0.140625"/><stop stop-opacity="1" stop-color="rgb(44.026184%, 52.320862%, 52.5177%)" offset="0.15625"/><stop stop-opacity="1" stop-color="rgb(44.239807%, 52.586365%, 52.804565%)" offset="0.171875"/><stop stop-opacity="1" stop-color="rgb(44.45343%, 52.851868%, 53.091431%)" offset="0.1875"/><stop stop-opacity="1" stop-color="rgb(44.667053%, 53.117371%, 53.378296%)" offset="0.203125"/><stop stop-opacity="1" stop-color="rgb(44.880676%, 53.382874%, 53.663635%)" offset="0.21875"/><stop stop-opacity="1" stop-color="rgb(45.094299%, 53.648376%, 53.9505%)" offset="0.234375"/><stop stop-opacity="1" stop-color="rgb(45.307922%, 53.915405%, 54.237366%)" offset="0.25"/><stop stop-opacity="1" stop-color="rgb(45.521545%, 54.180908%, 54.524231%)" offset="0.265625"/><stop stop-opacity="1" stop-color="rgb(45.735168%, 54.446411%, 54.811096%)" offset="0.28125"/><stop stop-opacity="1" stop-color="rgb(45.948792%, 54.711914%, 55.096436%)" offset="0.296875"/><stop stop-opacity="1" stop-color="rgb(46.162415%, 54.977417%, 55.383301%)" offset="0.3125"/><stop stop-opacity="1" stop-color="rgb(46.376038%, 55.24292%, 55.670166%)" offset="0.328125"/><stop stop-opacity="1" stop-color="rgb(46.589661%, 55.508423%, 55.957031%)" offset="0.34375"/><stop stop-opacity="1" stop-color="rgb(46.803284%, 55.773926%, 56.242371%)" offset="0.359375"/><stop stop-opacity="1" stop-color="rgb(47.016907%, 56.039429%, 56.529236%)" offset="0.375"/><stop stop-opacity="1" stop-color="rgb(47.23053%, 56.304932%, 56.816101%)" offset="0.390625"/><stop stop-opacity="1" stop-color="rgb(47.444153%, 56.57196%, 57.102966%)" offset="0.40625"/><stop stop-opacity="1" stop-color="rgb(47.657776%, 56.837463%, 57.388306%)" offset="0.421875"/><stop stop-opacity="1" stop-color="rgb(47.871399%, 57.102966%, 57.675171%)" offset="0.4375"/><stop stop-opacity="1" stop-color="rgb(48.083496%, 57.368469%, 57.962036%)" offset="0.453125"/><stop stop-opacity="1" stop-color="rgb(48.297119%, 57.633972%, 58.248901%)" offset="0.46875"/><stop stop-opacity="1" stop-color="rgb(48.510742%, 57.899475%, 58.534241%)" offset="0.484375"/><stop stop-opacity="1" stop-color="rgb(48.724365%, 58.164978%, 58.821106%)" offset="0.5"/><stop stop-opacity="1" stop-color="rgb(48.937988%, 58.430481%, 59.107971%)" offset="0.515625"/><stop stop-opacity="1" stop-color="rgb(49.151611%, 58.695984%, 59.394836%)" offset="0.53125"/><stop stop-opacity="1" stop-color="rgb(49.365234%, 58.963013%, 59.680176%)" offset="0.546875"/><stop stop-opacity="1" stop-color="rgb(49.578857%, 59.228516%, 59.967041%)" offset="0.5625"/><stop stop-opacity="1" stop-color="rgb(49.79248%, 59.494019%, 60.253906%)" offset="0.578125"/><stop stop-opacity="1" stop-color="rgb(50.006104%, 59.759521%, 60.540771%)" offset="0.59375"/><stop stop-opacity="1" stop-color="rgb(50.18158%, 59.968567%, 60.765076%)" offset="0.601562"/><stop stop-opacity="1" stop-color="rgb(50.379944%, 60.168457%, 60.96344%)" offset="0.609375"/><stop stop-opacity="1" stop-color="rgb(50.639343%, 60.412598%, 61.198425%)" offset="0.617188"/><stop stop-opacity="1" stop-color="rgb(50.898743%, 60.656738%, 61.434937%)" offset="0.625"/><stop stop-opacity="1" stop-color="rgb(51.158142%, 60.900879%, 61.671448%)" offset="0.632812"/><stop stop-opacity="1" stop-color="rgb(51.419067%, 61.14502%, 61.907959%)" offset="0.640625"/><stop stop-opacity="1" stop-color="rgb(51.678467%, 61.38916%, 62.14447%)" offset="0.648438"/><stop stop-opacity="1" stop-color="rgb(51.937866%, 61.633301%, 62.380981%)" offset="0.65625"/><stop stop-opacity="1" stop-color="rgb(52.198792%, 61.877441%, 62.617493%)" offset="0.664063"/><stop stop-opacity="1" stop-color="rgb(52.458191%, 62.121582%, 62.854004%)" offset="0.671875"/><stop stop-opacity="1" stop-color="rgb(52.71759%, 62.365723%, 63.090515%)" offset="0.679688"/><stop stop-opacity="1" stop-color="rgb(52.97699%, 62.609863%, 63.327026%)" offset="0.6875"/><stop stop-opacity="1" stop-color="rgb(53.237915%, 62.854004%, 63.562012%)" offset="0.695312"/><stop stop-opacity="1" stop-color="rgb(53.497314%, 63.09967%, 63.798523%)" offset="0.703125"/><stop stop-opacity="1" stop-color="rgb(53.756714%, 63.343811%, 64.035034%)" offset="0.710938"/><stop stop-opacity="1" stop-color="rgb(54.016113%, 63.587952%, 64.271545%)" offset="0.71875"/><stop stop-opacity="1" stop-color="rgb(54.277039%, 63.832092%, 64.508057%)" offset="0.726562"/><stop stop-opacity="1" stop-color="rgb(54.536438%, 64.076233%, 64.744568%)" offset="0.734375"/><stop stop-opacity="1" stop-color="rgb(54.795837%, 64.320374%, 64.981079%)" offset="0.742188"/><stop stop-opacity="1" stop-color="rgb(55.055237%, 64.564514%, 65.21759%)" offset="0.75"/><stop stop-opacity="1" stop-color="rgb(55.316162%, 64.808655%, 65.454102%)" offset="0.757813"/><stop stop-opacity="1" stop-color="rgb(55.575562%, 65.052795%, 65.690613%)" offset="0.765625"/><stop stop-opacity="1" stop-color="rgb(55.834961%, 65.296936%, 65.927124%)" offset="0.773438"/><stop stop-opacity="1" stop-color="rgb(56.095886%, 65.541077%, 66.162109%)" offset="0.78125"/><stop stop-opacity="1" stop-color="rgb(56.355286%, 65.785217%, 66.398621%)" offset="0.789062"/><stop stop-opacity="1" stop-color="rgb(56.614685%, 66.029358%, 66.635132%)" offset="0.796875"/><stop stop-opacity="1" stop-color="rgb(56.874084%, 66.273499%, 66.871643%)" offset="0.804688"/><stop stop-opacity="1" stop-color="rgb(57.13501%, 66.517639%, 67.108154%)" offset="0.8125"/><stop stop-opacity="1" stop-color="rgb(57.394409%, 66.76178%, 67.344666%)" offset="0.820312"/><stop stop-opacity="1" stop-color="rgb(57.653809%, 67.00592%, 67.581177%)" offset="0.828125"/><stop stop-opacity="1" stop-color="rgb(57.913208%, 67.250061%, 67.817688%)" offset="0.835938"/><stop stop-opacity="1" stop-color="rgb(58.174133%, 67.494202%, 68.054199%)" offset="0.84375"/><stop stop-opacity="1" stop-color="rgb(58.433533%, 67.738342%, 68.29071%)" offset="0.851563"/><stop stop-opacity="1" stop-color="rgb(58.692932%, 67.982483%, 68.525696%)" offset="0.859375"/><stop stop-opacity="1" stop-color="rgb(58.952332%, 68.226624%, 68.762207%)" offset="0.867188"/><stop stop-opacity="1" stop-color="rgb(59.213257%, 68.470764%, 68.998718%)" offset="0.875"/><stop stop-opacity="1" stop-color="rgb(59.472656%, 68.714905%, 69.235229%)" offset="0.882812"/><stop stop-opacity="1" stop-color="rgb(59.732056%, 68.959045%, 69.471741%)" offset="0.890625"/><stop stop-opacity="1" stop-color="rgb(59.992981%, 69.203186%, 69.708252%)" offset="0.898438"/><stop stop-opacity="1" stop-color="rgb(60.25238%, 69.447327%, 69.944763%)" offset="0.90625"/><stop stop-opacity="1" stop-color="rgb(60.51178%, 69.691467%, 70.181274%)" offset="0.914062"/><stop stop-opacity="1" stop-color="rgb(60.771179%, 69.935608%, 70.417786%)" offset="0.921875"/><stop stop-opacity="1" stop-color="rgb(61.032104%, 70.179749%, 70.654297%)" offset="0.929688"/><stop stop-opacity="1" stop-color="rgb(61.291504%, 70.423889%, 70.889282%)" offset="0.9375"/><stop stop-opacity="1" stop-color="rgb(61.550903%, 70.66803%, 71.125793%)" offset="0.945313"/><stop stop-opacity="1" stop-color="rgb(61.810303%, 70.91217%, 71.362305%)" offset="0.953125"/><stop stop-opacity="1" stop-color="rgb(62.071228%, 71.156311%, 71.598816%)" offset="0.960938"/><stop stop-opacity="1" stop-color="rgb(62.330627%, 71.400452%, 71.835327%)" offset="0.96875"/><stop stop-opacity="1" stop-color="rgb(62.590027%, 71.644592%, 72.071838%)" offset="0.976562"/><stop stop-opacity="1" stop-color="rgb(62.849426%, 71.888733%, 72.30835%)" offset="0.984375"/><stop stop-opacity="1" stop-color="rgb(63.110352%, 72.132874%, 72.544861%)" offset="0.992188"/><stop stop-opacity="1" stop-color="rgb(63.369751%, 72.377014%, 72.781372%)" offset="1"/></linearGradient><clipPath id="21802e4747"><rect x="0" width="151" y="0" height="143"/></clipPath><clipPath id="5c0f2dff2e"><path d="M 182 36.535156 L 248.851562 36.535156 L 248.851562 138.242188 L 182 138.242188 Z M 182 36.535156 " clip-rule="nonzero"/></clipPath></defs><g mask="url(#a9209be802)"><g transform="matrix(1, 0, 0, 1, 51, 1)"><g clip-path="url(#21802e4747)"><g clip-path="url(#e0eaf67764)"><g clip-path="url(#ffdb1dae77)"><path fill="url(#bd1403e572)" d="M 0.152344 0.640625 L 0.152344 141.648438 L 149.824219 141.648438 L 149.824219 0.640625 Z M 0.152344 0.640625 " fill-rule="nonzero"/></g></g></g></g></g><g fill="#e17b84" fill-opacity="1"><g transform="translate(2.919401, 102.811567)"><g><path d="M 62.359375 -65.328125 L 62.359375 0 L 46.4375 0 L 46.4375 -26.890625 L 21.6875 -26.890625 L 21.6875 0 L 5.765625 0 L 5.765625 -65.328125 L 21.6875 -65.328125 L 21.6875 -39.734375 L 46.4375 -39.734375 L 46.4375 -65.328125 Z M 62.359375 -65.328125 "/></g></g></g><g fill="#e17b84" fill-opacity="1"><g transform="translate(70.949813, 102.811567)"><g><path d="M 21.6875 -52.578125 L 21.6875 -39.359375 L 43 -39.359375 L 43 -27.078125 L 21.6875 -27.078125 L 21.6875 -12.75 L 45.78125 -12.75 L 45.78125 0 L 5.765625 0 L 5.765625 -65.328125 L 45.78125 -65.328125 L 45.78125 -52.578125 Z M 21.6875 -52.578125 "/></g></g></g><g fill="#e17b84" fill-opacity="1"><g transform="translate(121.297898, 102.811567)"><g><path d="M 39.09375 0 L 25.5 -24.65625 L 21.6875 -24.65625 L 21.6875 0 L 5.765625 0 L 5.765625 -65.328125 L 32.484375 -65.328125 C 37.628906 -65.328125 42.015625 -64.425781 45.640625 -62.625 C 49.273438 -60.832031 51.988281 -58.367188 53.78125 -55.234375 C 55.582031 -52.097656 56.484375 -48.609375 56.484375 -44.765625 C 56.484375 -40.421875 55.257812 -36.539062 52.8125 -33.125 C 50.363281 -29.71875 46.75 -27.300781 41.96875 -25.875 L 57.046875 0 Z M 21.6875 -35.921875 L 31.546875 -35.921875 C 34.460938 -35.921875 36.648438 -36.632812 38.109375 -38.0625 C 39.566406 -39.488281 40.296875 -41.503906 40.296875 -44.109375 C 40.296875 -46.585938 39.566406 -48.539062 38.109375 -49.96875 C 36.648438 -51.394531 34.460938 -52.109375 31.546875 -52.109375 L 21.6875 -52.109375 Z M 21.6875 -35.921875 "/></g></g></g><g clip-path="url(#5c0f2dff2e)"><path fill="#e17b84" d="M 191.699219 70.050781 C 191.699219 56.910156 202.386719 46.222656 215.523438 46.222656 C 228.664062 46.222656 239.351562 56.910156 239.351562 70.050781 C 239.351562 83.1875 228.664062 93.875 215.523438 93.875 C 202.386719 93.875 191.699219 83.1875 191.699219 70.050781 Z M 249.035156 70.050781 C 249.035156 51.570312 234.003906 36.539062 215.523438 36.539062 C 197.046875 36.539062 182.015625 51.570312 182.015625 70.050781 C 182.015625 86.882812 194.492188 100.855469 210.683594 103.210938 L 210.683594 116.84375 L 199.40625 116.84375 L 199.40625 126.527344 L 210.683594 126.527344 L 210.683594 138.195312 L 220.367188 138.195312 L 220.367188 126.527344 L 231.644531 126.527344 L 231.644531 116.84375 L 220.367188 116.84375 L 220.367188 103.210938 C 236.558594 100.855469 249.035156 86.882812 249.035156 70.050781 " fill-opacity="1" fill-rule="nonzero"/></g></svg>