<svg xmlns="http://www.w3.org/2000/svg" xmlns:xlink="http://www.w3.org/1999/xlink" width="336" zoomAndPan="magnify" viewBox="0 0 252 143.999998" height="192" preserveAspectRatio="xMidYMid meet" version="1.0"><defs><g/><clipPath id="a193897ad0"><path d="M 182 36.535156 L 248.851562 36.535156 L 248.851562 138.242188 L 182 138.242188 Z M 182 36.535156 " clip-rule="nonzero"/></clipPath></defs><g fill="#e17b84" fill-opacity="1"><g transform="translate(2.919401, 102.811567)"><g><path d="M 62.359375 -65.328125 L 62.359375 0 L 46.4375 0 L 46.4375 -26.890625 L 21.6875 -26.890625 L 21.6875 0 L 5.765625 0 L 5.765625 -65.328125 L 21.6875 -65.328125 L 21.6875 -39.734375 L 46.4375 -39.734375 L 46.4375 -65.328125 Z M 62.359375 -65.328125 "/></g></g></g><g fill="#e17b84" fill-opacity="1"><g transform="translate(70.949813, 102.811567)"><g><path d="M 21.6875 -52.578125 L 21.6875 -39.359375 L 43 -39.359375 L 43 -27.078125 L 21.6875 -27.078125 L 21.6875 -12.75 L 45.78125 -12.75 L 45.78125 0 L 5.765625 0 L 5.765625 -65.328125 L 45.78125 -65.328125 L 45.78125 -52.578125 Z M 21.6875 -52.578125 "/></g></g></g><g fill="#e17b84" fill-opacity="1"><g transform="translate(121.297898, 102.811567)"><g><path d="M 39.09375 0 L 25.5 -24.65625 L 21.6875 -24.65625 L 21.6875 0 L 5.765625 0 L 5.765625 -65.328125 L 32.484375 -65.328125 C 37.628906 -65.328125 42.015625 -64.425781 45.640625 -62.625 C 49.273438 -60.832031 51.988281 -58.367188 53.78125 -55.234375 C 55.582031 -52.097656 56.484375 -48.609375 56.484375 -44.765625 C 56.484375 -40.421875 55.257812 -36.539062 52.8125 -33.125 C 50.363281 -29.71875 46.75 -27.300781 41.96875 -25.875 L 57.046875 0 Z M 21.6875 -35.921875 L 31.546875 -35.921875 C 34.460938 -35.921875 36.648438 -36.632812 38.109375 -38.0625 C 39.566406 -39.488281 40.296875 -41.503906 40.296875 -44.109375 C 40.296875 -46.585938 39.566406 -48.539062 38.109375 -49.96875 C 36.648438 -51.394531 34.460938 -52.109375 31.546875 -52.109375 L 21.6875 -52.109375 Z M 21.6875 -35.921875 "/></g></g></g><g clip-path="url(#a193897ad0)"><path fill="#e17b84" d="M 191.699219 70.050781 C 191.699219 56.910156 202.386719 46.222656 215.523438 46.222656 C 228.664062 46.222656 239.351562 56.910156 239.351562 70.050781 C 239.351562 83.1875 228.664062 93.875 215.523438 93.875 C 202.386719 93.875 191.699219 83.1875 191.699219 70.050781 Z M 249.035156 70.050781 C 249.035156 51.570312 234.003906 36.539062 215.523438 36.539062 C 197.046875 36.539062 182.015625 51.570312 182.015625 70.050781 C 182.015625 86.882812 194.492188 100.855469 210.683594 103.210938 L 210.683594 116.84375 L 199.40625 116.84375 L 199.40625 126.527344 L 210.683594 126.527344 L 210.683594 138.195312 L 220.367188 138.195312 L 220.367188 126.527344 L 231.644531 126.527344 L 231.644531 116.84375 L 220.367188 116.84375 L 220.367188 103.210938 C 236.558594 100.855469 249.035156 86.882812 249.035156 70.050781 " fill-opacity="1" fill-rule="nonzero"/></g></svg>