<svg xmlns="http://www.w3.org/2000/svg" xmlns:xlink="http://www.w3.org/1999/xlink" width="500" zoomAndPan="magnify" viewBox="0 0 375 374.999991" height="500" preserveAspectRatio="xMidYMid meet" version="1.0"><defs><clipPath id="593b9fff29"><path d="M 95.359375 47.890625 L 279.859375 47.890625 L 279.859375 326.890625 L 95.359375 326.890625 Z M 95.359375 47.890625 " clip-rule="nonzero"/></clipPath><clipPath id="a280cec9bd"><path d="M 11.355469 11.355469 L 363.632812 11.355469 L 363.632812 363.632812 L 11.355469 363.632812 Z M 11.355469 11.355469 " clip-rule="nonzero"/></clipPath><clipPath id="aca4cdedf4"><path d="M 187.496094 11.355469 C 90.214844 11.355469 11.355469 90.214844 11.355469 187.496094 C 11.355469 284.773438 90.214844 363.632812 187.496094 363.632812 C 284.773438 363.632812 363.632812 284.773438 363.632812 187.496094 C 363.632812 90.214844 284.773438 11.355469 187.496094 11.355469 Z M 187.496094 11.355469 " clip-rule="nonzero"/></clipPath></defs><rect x="-37.5" width="450" fill="#ffffff" y="-37.499999" height="449.999989" fill-opacity="1"/><rect x="-37.5" width="450" fill="#ffffff" y="-37.499999" height="449.999989" fill-opacity="1"/><g clip-path="url(#593b9fff29)"><path fill="#e17b84" d="M 122.0625 139.9375 C 122.0625 103.855469 151.417969 74.5 187.5 74.5 C 223.582031 74.5 252.9375 103.855469 252.9375 139.9375 C 252.9375 176.019531 223.582031 205.378906 187.5 205.378906 C 151.417969 205.378906 122.0625 176.019531 122.0625 139.9375 Z M 279.539062 139.9375 C 279.539062 89.1875 238.25 47.902344 187.5 47.902344 C 136.75 47.902344 95.460938 89.1875 95.460938 139.9375 C 95.460938 186.171875 129.730469 224.546875 174.199219 231.011719 L 174.199219 268.457031 L 143.230469 268.457031 L 143.230469 295.054688 L 174.199219 295.054688 L 174.199219 327.097656 L 200.796875 327.097656 L 200.796875 295.054688 L 231.769531 295.054688 L 231.769531 268.457031 L 200.796875 268.457031 L 200.796875 231.011719 C 245.269531 224.546875 279.539062 186.171875 279.539062 139.9375 " fill-opacity="1" fill-rule="nonzero"/></g><g clip-path="url(#a280cec9bd)"><g clip-path="url(#aca4cdedf4)"><path stroke-linecap="butt" transform="matrix(0.75, 0, 0, 0.75, 11.355637, 11.355633)" fill="none" stroke-linejoin="miter" d="M 234.853957 -0.000218806 C 105.145615 -0.000218806 -0.000224806 105.145621 -0.000224806 234.853963 C -0.000224806 364.557097 105.145615 469.702937 234.853957 469.702937 C 364.557091 469.702937 469.702931 364.557097 469.702931 234.853963 C 469.702931 105.145621 364.557091 -0.000218806 234.853957 -0.000218806 Z M 234.853957 -0.000218806 " stroke="#e17b84" stroke-width="24" stroke-opacity="1" stroke-miterlimit="4"/></g></g></svg>